{
  "asset": {
    "version": "2.0",
    "generator": "THREE.GLTFExporter"
  },
  "scenes": [
    {
      "nodes": [
        0
      ]
    }
  ],
  "scene": 0,
  "nodes": [
    {
      "children": [
        5
      ],
      "matrix": [
        0.01,
        0,
        0,
        0,
        0,
        0.01,
        0,
        0,
        0,
        0,
        0.01,
        0,
        0,
        0,
        0,
        1
      ]
    },
    {
      "name": "Shape 0",
      "mesh": 0
    },
    {
      "name": "logo",
      "children": [
        1
      ]
    },
    {
      "matrix": [
        -1,
        0,
        -1.225686219186173e-16,
        0,
        -7.838121954275975e-33,
        1,
        6.394884621840902e-17,
        0,
        1.225686219186173e-16,
        6.394884621840902e-17,
        -1,
        0,
        7.999999999999898,
        -34.19981067833964,
        -1049.1522769429316,
        1
      ],
      "camera": 0
    },
    {
      "matrix": [
        1,
        0,
        0,
        0,
        0,
        1,
        0,
        0,
        0,
        0,
        1,
        0,
        0,
        1,
        0,
        1
      ],
      "name": "Default Ambient Light"
    },
    {
      "name": "Scene 1",
      "children": [
        2,
        3,
        4
      ]
    }
  ],
  "bufferViews": [
    {
      "buffer": 0,
      "byteOffset": 0,
      "byteLength": 1296,
      "target": 34962,
      "byteStride": 12
    },
    {
      "buffer": 0,
      "byteOffset": 1296,
      "byteLength": 1296,
      "target": 34962,
      "byteStride": 12
    },
    {
      "buffer": 0,
      "byteOffset": 2592,
      "byteLength": 864,
      "target": 34962,
      "byteStride": 8
    },
    {
      "buffer": 0,
      "byteOffset": 3456,
      "byteLength": 816,
      "target": 34963
    }
  ],
  "buffers": [
    {
      "byteLength": 4272,
      "uri": "data:application/octet-stream;base64,"
    }
  ],
  "accessors": [
    {
      "bufferView": 0,
      "componentType": 5126,
      "count": 108,
      "max": [
        31.280000686645508,
        0,
        6
      ],
      "min": [
        0,
        -36.70000076293945,
        0
      ],
      "type": "VEC3"
    },
    {
      "bufferView": 1,
      "componentType": 5126,
      "count": 108,
      "max": [
        1,
        1,
        1
      ],
      "min": [
        -1,
        -0.9999505281448364,
        -1
      ],
      "type": "VEC3"
    },
    {
      "bufferView": 2,
      "componentType": 5126,
      "count": 108,
      "max": [
        1,
        1
      ],
      "min": [
        0,
        0
      ],
      "type": "VEC2"
    },
    {
      "bufferView": 3,
      "componentType": 5125,
      "count": 204,
      "max": [
        107
      ],
      "min": [
        0
      ],
      "type": "SCALAR"
    }
  ],
  "meshes": [
    {
      "primitives": [
        {
          "mode": 4,
          "attributes": {
            "POSITION": 0,
            "NORMAL": 1,
            "TEXCOORD_0": 2
          },
          "extras": {
            "parameters": {
              "width": 31.28,
              "subdivisions": 12,
              "roundness": 0,
              "extrudeBevelSize": 0,
              "extrudeBevelSegments": 1,
              "windingRule": 0,
              "shape": {
                "points": [
                  {
                    "fi": 0,
                    "id": "3204cd6d-6a66-416c-8486-9a6358c926a3",
                    "data": {
                      "roundness": 0,
                      "position": [
                        8.32,
                        -13.5
                      ],
                      "areControlsDirectionsMirrored": true,
                      "controlPrevious": {
                        "position": [
                          8.32,
                          -13.5
                        ]
                      },
                      "controlNext": {
                        "position": [
                          8.32,
                          -13.5
                        ]
                      }
                    }
                  },
                  {
                    "fi": 1,
                    "id": "3fc68ae0-7f0c-4f7c-b07e-5aa40002b1d8",
                    "data": {
                      "roundness": 0,
                      "position": [
                        10.8,
                        -9.2
                      ],
                      "areControlsDirectionsMirrored": true,
                      "controlPrevious": {
                        "position": [
                          10.8,
                          -9.2
                        ]
                      },
                      "controlNext": {
                        "position": [
                          10.8,
                          -9.2
                        ]
                      }
                    }
                  },
                  {
                    "fi": 2,
                    "id": "91c8e635-d63e-4886-98da-a5ffd663fa92",
                    "data": {
                      "roundness": 0,
                      "position": [
                        30.9,
                        -9
                      ],
                      "areControlsDirectionsMirrored": true,
                      "controlPrevious": {
                        "position": [
                          30.9,
                          -9
                        ]
                      },
                      "controlNext": {
                        "position": [
                          30.9,
                          -9
                        ]
                      }
                    }
                  },
                  {
                    "fi": 3,
                    "id": "95bccb27-cbce-4fd3-be4e-2acbd7282574",
                    "data": {
                      "roundness": 0,
                      "position": [
                        15.4,
                        0
                      ],
                      "areControlsDirectionsMirrored": true,
                      "controlPrevious": {
                        "position": [
                          15.4,
                          0
                        ]
                      },
                      "controlNext": {
                        "position": [
                          15.4,
                          0
                        ]
                      }
                    }
                  },
                  {
                    "fi": 4,
                    "id": "4f31f818-3d3a-4073-8a5a-724e0de9f1ba",
                    "data": {
                      "roundness": 0,
                      "position": [
                        4.3,
                        -6.5
                      ],
                      "areControlsDirectionsMirrored": true,
                      "controlPrevious": {
                        "position": [
                          4.3,
                          -6.5
                        ]
                      },
                      "controlNext": {
                        "position": [
                          4.3,
                          -6.5
                        ]
                      }
                    }
                  },
                  {
                    "fi": 5,
                    "id": "d3cd2d1d-eb10-4bd1-956c-a6e7b37f65ec",
                    "data": {
                      "roundness": 0,
                      "position": [
                        8.33,
                        -13.55
                      ],
                      "areControlsDirectionsMirrored": true,
                      "controlPrevious": {
                        "position": [
                          8.33,
                          -13.55
                        ]
                      },
                      "controlNext": {
                        "position": [
                          8.33,
                          -13.55
                        ]
                      }
                    }
                  },
                  {
                    "fi": 6,
                    "id": "e1f8247b-d31f-457e-a040-10559e1b35e4",
                    "data": {
                      "roundness": 0,
                      "position": [
                        15.5,
                        -25.88
                      ],
                      "areControlsDirectionsMirrored": true,
                      "controlPrevious": {
                        "position": [
                          15.5,
                          -25.88
                        ]
                      },
                      "controlNext": {
                        "position": [
                          15.5,
                          -25.88
                        ]
                      }
                    }
                  },
                  {
                    "fi": 7,
                    "id": "e3f1d440-76c2-479f-91ec-669629f7939c",
                    "data": {
                      "roundness": 0,
                      "position": [
                        10.6,
                        -25.8
                      ],
                      "areControlsDirectionsMirrored": true,
                      "controlPrevious": {
                        "position": [
                          10.6,
                          -25.8
                        ]
                      },
                      "controlNext": {
                        "position": [
                          10.6,
                          -25.8
                        ]
                      }
                    }
                  },
                  {
                    "fi": 8,
                    "id": "daf47167-e4b1-4709-9e30-63614e3a8e4f",
                    "data": {
                      "roundness": 0,
                      "position": [
                        0,
                        -8.3
                      ],
                      "areControlsDirectionsMirrored": true,
                      "controlPrevious": {
                        "position": [
                          0,
                          -8.3
                        ]
                      },
                      "controlNext": {
                        "position": [
                          0,
                          -8.3
                        ]
                      }
                    }
                  },
                  {
                    "fi": 9,
                    "id": "dfda5b41-432e-4b2f-af89-ef990c3ef6b0",
                    "data": {
                      "roundness": 0,
                      "position": [
                        0,
                        -9.1
                      ],
                      "areControlsDirectionsMirrored": true,
                      "controlPrevious": {
                        "position": [
                          0,
                          -9.1
                        ]
                      },
                      "controlNext": {
                        "position": [
                          0,
                          -9.1
                        ]
                      }
                    }
                  },
                  {
                    "fi": 10,
                    "id": "cbfce04c-d609-4f17-af28-240c7c97bca5",
                    "data": {
                      "roundness": 0,
                      "position": [
                        0,
                        -27
                      ],
                      "areControlsDirectionsMirrored": true,
                      "controlPrevious": {
                        "position": [
                          0,
                          -27
                        ]
                      },
                      "controlNext": {
                        "position": [
                          0,
                          -27
                        ]
                      }
                    }
                  },
                  {
                    "fi": 11,
                    "id": "e2bfe858-6e26-42ca-b57f-4400ef03008e",
                    "data": {
                      "roundness": 0,
                      "position": [
                        11.23,
                        -33.56
                      ],
                      "areControlsDirectionsMirrored": true,
                      "controlPrevious": {
                        "position": [
                          11.23,
                          -33.56
                        ]
                      },
                      "controlNext": {
                        "position": [
                          11.23,
                          -33.56
                        ]
                      }
                    }
                  },
                  {
                    "fi": 12,
                    "id": "40f6caae-8b12-4765-9416-1be122bc6595",
                    "data": {
                      "roundness": 0,
                      "position": [
                        15.49,
                        -25.98
                      ],
                      "areControlsDirectionsMirrored": true,
                      "controlPrevious": {
                        "position": [
                          15.49,
                          -25.98
                        ]
                      },
                      "controlNext": {
                        "position": [
                          15.49,
                          -25.98
                        ]
                      }
                    }
                  },
                  {
                    "fi": 13,
                    "id": "0f5113fc-b225-4eb0-a293-20fdd13933a5",
                    "data": {
                      "roundness": 0,
                      "position": [
                        22.5,
                        -13.5
                      ],
                      "areControlsDirectionsMirrored": true,
                      "controlPrevious": {
                        "position": [
                          22.5,
                          -13.5
                        ]
                      },
                      "controlNext": {
                        "position": [
                          22.5,
                          -13.5
                        ]
                      }
                    }
                  },
                  {
                    "fi": 14,
                    "id": "4f6d78f0-8a77-4690-b5b6-7b7b99106ca6",
                    "data": {
                      "roundness": 0,
                      "position": [
                        25.19,
                        -17.8
                      ],
                      "areControlsDirectionsMirrored": true,
                      "controlPrevious": {
                        "position": [
                          25.19,
                          -17.8
                        ]
                      },
                      "controlNext": {
                        "position": [
                          25.19,
                          -17.8
                        ]
                      }
                    }
                  },
                  {
                    "fi": 15,
                    "id": "f9718221-cc16-48e1-9588-22ebb7ce7751",
                    "data": {
                      "roundness": 0,
                      "position": [
                        14.78,
                        -36.7
                      ],
                      "areControlsDirectionsMirrored": true,
                      "controlPrevious": {
                        "position": [
                          14.78,
                          -36.7
                        ]
                      },
                      "controlNext": {
                        "position": [
                          14.78,
                          -36.7
                        ]
                      }
                    }
                  },
                  {
                    "fi": 16,
                    "id": "dbcfec57-a597-45d4-a849-ac175ea876ec",
                    "data": {
                      "roundness": 0,
                      "position": [
                        31.28,
                        -27.3
                      ],
                      "areControlsDirectionsMirrored": true,
                      "controlPrevious": {
                        "position": [
                          31.28,
                          -27.3
                        ]
                      },
                      "controlNext": {
                        "position": [
                          31.28,
                          -27.3
                        ]
                      }
                    }
                  },
                  {
                    "fi": 17,
                    "id": "672626c8-aabd-46f1-808f-5ad9255e043a",
                    "data": {
                      "roundness": 0,
                      "position": [
                        31.28,
                        -13.5
                      ],
                      "areControlsDirectionsMirrored": true,
                      "controlPrevious": {
                        "position": [
                          31.28,
                          -13.5
                        ]
                      },
                      "controlNext": {
                        "position": [
                          31.28,
                          -13.5
                        ]
                      }
                    }
                  }
                ],
                "isClosed": true,
                "roundness": 0,
                "shapeHoles": []
              },
              "type": "VectorGeometry",
              "height": 36.7,
              "depth": 6
            },
            "shape": {
              "points": [
                8.32,
                -13.5,
                8.32,
                -13.5,
                8.32,
                -13.5,
                0,
                10.8,
                -9.2,
                10.8,
                -9.2,
                10.8,
                -9.2,
                0,
                30.9,
                -9,
                30.9,
                -9,
                30.9,
                -9,
                0,
                15.4,
                0,
                15.4,
                0,
                15.4,
                0,
                0,
                4.3,
                -6.5,
                4.3,
                -6.5,
                4.3,
                -6.5,
                0,
                8.33,
                -13.55,
                8.33,
                -13.55,
                8.33,
                -13.55,
                0,
                15.5,
                -25.88,
                15.5,
                -25.88,
                15.5,
                -25.88,
                0,
                10.6,
                -25.8,
                10.6,
                -25.8,
                10.6,
                -25.8,
                0,
                0,
                -8.3,
                0,
                -8.3,
                0,
                -8.3,
                0,
                0,
                -9.1,
                0,
                -9.1,
                0,
                -9.1,
                0,
                0,
                -27,
                0,
                -27,
                0,
                -27,
                0,
                11.23,
                -33.56,
                11.23,
                -33.56,
                11.23,
                -33.56,
                0,
                15.49,
                -25.98,
                15.49,
                -25.98,
                15.49,
                -25.98,
                0,
                22.5,
                -13.5,
                22.5,
                -13.5,
                22.5,
                -13.5,
                0,
                25.19,
                -17.8,
                25.19,
                -17.8,
                25.19,
                -17.8,
                0,
                14.78,
                -36.7,
                14.78,
                -36.7,
                14.78,
                -36.7,
                0,
                31.28,
                -27.3,
                31.28,
                -27.3,
                31.28,
                -27.3,
                0,
                31.28,
                -13.5,
                31.28,
                -13.5,
                31.28,
                -13.5,
                0
              ],
              "shapeHoles": [],
              "isClosed": true,
              "roundness": 0
            },
            "type": "VectorGeometry"
          },
          "indices": 3
        }
      ]
    }
  ],
  "cameras": [
    {
      "type": "orthographic",
      "orthographic": {
        "xmag": 1.5614970076848702,
        "ymag": 0.7887974574902953,
        "zfar": 100000,
        "znear": 0
      }
    }
  ]
}